# xmcd
#
# Track frame offsets:
#	150
#	23291
#	45952
#	71283
#	101124
#	122524
#	140431
#	162605
#	184870
#	202197
#
# Disc length: 3081 seconds
#
# Revision: 3
# Processed by: cddbd v1.5.2PL0 Copyright (c) Steve Scherf et al.
# Submitted via: EZCDAudioConverter 8.0.2.1
#
DISCID=830c070a
DTITLE=Trường Vũ and Quan Kim Thủy - Không còn nhớ người yêu
DYEAR=2002
DGENRE=blues
TTITLE0=Trường Vũ - Không còn nhớ người yêu
TTITLE1=Trường Vũ - Em hãy về đi
TTITLE2=Quan Kim Thủy - Rồi ngày mai xa nhau
TTITLE3=Trường Vũ and Quan Kim Thủy - Ước mộng đôi ta
TTITLE4=Trường Vũ - Gõ của trái tim
TTITLE5=Trường Vũ - Đoạn tuyệt
TTITLE6=Quan Kim Thủy - Đêm nhớ người tình
TTITLE7=Trường Vũ - Hạnh phúc đơn sơ
TTITLE8=Trường Vũ and Quan Kim Thủy - Tình nghèo có nhau
TTITLE9=Trường Vũ - Mưa bong bóng
EXTD=
EXTT0=
EXTT1=
EXTT2=
EXTT3=
EXTT4=
EXTT5=
EXTT6=
EXTT7=
EXTT8=
EXTT9=
PLAYORDER=
